<?xml version="1.0" encoding="UTF-8" standalone="no"?><svg xmlns="http://www.w3.org/2000/svg" xmlns:xlink="http://www.w3.org/1999/xlink" contentScriptType="application/ecmascript" contentStyleType="text/css" height="545.4233px" preserveAspectRatio="none" style="width:345px;height:545px;" version="1.1" viewBox="0 0 345 545" width="345.1945px" zoomAndPan="magnify"><defs><filter height="300%" id="f1ifv8b6vfmvvd" width="300%" x="-1" y="-1"><feGaussianBlur result="blurOut" stdDeviation="1.6018306636155606"/><feColorMatrix in="blurOut" result="blurOut2" type="matrix" values="0 0 0 0 0 0 0 0 0 0 0 0 0 0 0 0 0 0 .4 0"/><feOffset dx="3.203661327231121" dy="3.203661327231121" in="blurOut2" result="blurOut3"/><feBlend in="SourceGraphic" in2="blurOut3" mode="normal"/></filter></defs><g><!--cluster NotShooting--><rect fill="#FEFECE" filter="url(#f1ifv8b6vfmvvd)" height="158.5812" rx="10.0114" ry="10.0114" style="stroke: #A80036; stroke-width: 1.2013729977116705;" width="84.897" x="125.3432" y="66.476"/><rect fill="#FFFFFF" height="132.7142" rx="10.0114" ry="10.0114" style="stroke: #FFFFFF; stroke-width: 0.8009153318077803;" width="80.0915" x="127.746" y="89.9403"/><line style="stroke: #A80036; stroke-width: 1.2013729977116705;" x1="125.3432" x2="210.2403" y1="87.5375" y2="87.5375"/><text fill="#000000" font-family="sans-serif" font-size="11.2128" lengthAdjust="spacingAndGlyphs" textLength="68.8787" x="133.3524" y="80.0876">NotShooting</text><ellipse cx="170.9954" cy="108.9245" fill="#000000" filter="url(#f1ifv8b6vfmvvd)" rx="8.0092" ry="8.0092" style="stroke: none; stroke-width: 0.8009153318077803;"/><rect fill="#FEFECE" filter="url(#f1ifv8b6vfmvvd)" height="40.0458" rx="10.0114" ry="10.0114" style="stroke: #A80036; stroke-width: 1.2013729977116705;" width="40.0458" x="150.9725" y="165.7895"/><line style="stroke: #A80036; stroke-width: 1.2013729977116705;" x1="150.9725" x2="191.0183" y1="186.851" y2="186.851"/><text fill="#000000" font-family="sans-serif" font-size="11.2128" lengthAdjust="spacingAndGlyphs" textLength="19.222" x="161.3844" y="180.202">Idle</text><ellipse cx="131.7506" cy="14.4165" fill="#000000" filter="url(#f1ifv8b6vfmvvd)" rx="8.0092" ry="8.0092" style="stroke: none; stroke-width: 0.8009153318077803;"/><rect fill="#FEFECE" filter="url(#f1ifv8b6vfmvvd)" height="254.9288" rx="10.0114" ry="10.0114" style="stroke: #A80036; stroke-width: 1.2013729977116705;" width="330.778" x="4.8055" y="281.9222"/><rect fill="#FFFFFF" height="229.0618" rx="10.0114" ry="10.0114" style="stroke: #FFFFFF; stroke-width: 0.8009153318077803;" width="325.9725" x="7.2082" y="305.3865"/><line style="stroke: #A80036; stroke-width: 1.2013729977116705;" x1="4.8055" x2="335.5835" y1="302.9838" y2="302.9838"/><text fill="#000000" font-family="sans-serif" font-size="11.2128" lengthAdjust="spacingAndGlyphs" textLength="63.2723" x="138.5584" y="296.3348">Configuring</text><ellipse cx="99.6098" cy="321.4048" fill="#000000" filter="url(#f1ifv8b6vfmvvd)" rx="8.0092" ry="8.0092" style="stroke: none; stroke-width: 0.8009153318077803;"/><rect fill="#FEFECE" filter="url(#f1ifv8b6vfmvvd)" height="40.0458" rx="10.0114" ry="10.0114" style="stroke: #A80036; stroke-width: 1.2013729977116705;" width="121.7391" x="38.7403" y="359.0478"/><line style="stroke: #A80036; stroke-width: 1.2013729977116705;" x1="38.7403" x2="160.4794" y1="380.1094" y2="380.1094"/><text fill="#000000" font-family="sans-serif" font-size="11.2128" lengthAdjust="spacingAndGlyphs" textLength="105.7208" x="46.7494" y="373.4604">NewValueSelection</text><rect fill="#FEFECE" filter="url(#f1ifv8b6vfmvvd)" height="83.533" rx="10.0114" ry="10.0114" style="stroke: #A80036; stroke-width: 1.2013729977116705;" width="153.7757" x="22.722" y="441.5421"/><rect fill="#FFFFFF" height="57.6659" rx="10.0114" ry="10.0114" style="stroke: #FFFFFF; stroke-width: 0.8009153318077803;" width="148.9703" x="25.1247" y="465.0064"/><line style="stroke: #A80036; stroke-width: 1.2013729977116705;" x1="22.722" x2="176.4977" y1="462.6037" y2="462.6037"/><text fill="#000000" font-family="sans-serif" font-size="11.2128" lengthAdjust="spacingAndGlyphs" textLength="96.9108" x="51.1545" y="455.9547">NewValuePreview</text><rect fill="#FEFECE" filter="url(#f1ifv8b6vfmvvd)" height="40.0458" rx="10.0114" ry="10.0114" style="stroke: #A80036; stroke-width: 1.2013729977116705;" width="52.0595" x="31.532" y="473.0156"/><line style="stroke: #A80036; stroke-width: 1.2013729977116705;" x1="31.532" x2="83.5915" y1="494.0772" y2="494.0772"/><text fill="#000000" font-family="sans-serif" font-size="11.2128" lengthAdjust="spacingAndGlyphs" textLength="36.0412" x="39.5412" y="487.4282">State1</text><rect fill="#FEFECE" filter="url(#f1ifv8b6vfmvvd)" height="40.0458" rx="10.0114" ry="10.0114" style="stroke: #A80036; stroke-width: 1.2013729977116705;" width="52.0595" x="98.008" y="473.0156"/><line style="stroke: #A80036; stroke-width: 1.2013729977116705;" x1="98.008" x2="150.0675" y1="494.0772" y2="494.0772"/><text fill="#000000" font-family="sans-serif" font-size="11.2128" lengthAdjust="spacingAndGlyphs" textLength="36.0412" x="106.0172" y="487.4282">State2</text><!--link State1 to State2--><path d="M83.7918,493.0385 C87.1076,493.0385 90.4233,493.0385 93.7391,493.0385 " fill="none" id="State1-State2" style="stroke: #A80036; stroke-width: 0.8009153318077803;"/><polygon fill="#A80036" points="97.9359,493.0385,90.7277,489.8348,93.9314,493.0385,90.7277,496.2421,97.9359,493.0385" style="stroke: #A80036; stroke-width: 0.8009153318077803;"/><!--link *start*Configuring to NewValueSelection--><path d="M99.6098,329.5341 C99.6098,335.9735 99.6098,345.6966 99.6098,354.7629 " fill="none" id="*start*Configuring-NewValueSelection" style="stroke: #A80036; stroke-width: 0.8009153318077803;"/><polygon fill="#A80036" points="99.6098,358.8716,102.8135,351.6634,99.6098,354.8671,96.4062,351.6634,99.6098,358.8716" style="stroke: #A80036; stroke-width: 0.8009153318077803;"/><!--link NewValueSelection to NewValuePreview--><path d="M38.6842,395.1611 C30.4828,399.7584 23.1224,405.7332 17.9165,413.5101 C11.2048,423.5295 13.167,432.9083 19.8387,441.3179 " fill="none" id="NewValueSelection-NewValuePreview" style="stroke: #A80036; stroke-width: 0.8009153318077803;"/><polygon fill="#A80036" points="22.5057,444.3694,20.1863,436.83,19.8752,441.3499,15.3552,441.0388,22.5057,444.3694" style="stroke: #A80036; stroke-width: 0.8009153318077803;"/><text fill="#000000" font-family="sans-serif" font-size="10.4119" lengthAdjust="spacingAndGlyphs" textLength="62.4714" x="18.7174" y="423.9756">EvNewValue</text><!--link NewValuePreview to NewValueSelection--><path d="M99.6098,441.5341 C99.6098,428.5112 99.6098,414.5433 99.6098,403.2103 " fill="none" id="NewValuePreview-NewValueSelection" style="stroke: #A80036; stroke-width: 0.8009153318077803;"/><polygon fill="#A80036" points="99.6098,399.1577,96.4062,406.3659,99.6098,403.1623,102.8135,406.3659,99.6098,399.1577" style="stroke: #A80036; stroke-width: 0.8009153318077803;"/><text fill="#000000" font-family="sans-serif" font-size="10.4119" lengthAdjust="spacingAndGlyphs" textLength="106.5217" x="100.4108" y="423.9756">EvNewValueRejected</text><!--link NewValuePreview to NewValueSelection--><path d="M176.5938,461.4128 C203.5526,450.0799 223.7437,434.1256 208.5343,413.5101 C197.9943,399.2218 181.4634,390.8202 164.4359,385.9266 " fill="none" id="NewValuePreview-NewValueSelection" style="stroke: #A80036; stroke-width: 0.8009153318077803;"/><polygon fill="#A80036" points="160.5595,384.8774,166.6733,389.8617,164.4235,385.9291,168.3561,383.6793,160.5595,384.8774" style="stroke: #A80036; stroke-width: 0.8009153318077803;"/><text fill="#000000" font-family="sans-serif" font-size="10.4119" lengthAdjust="spacingAndGlyphs" textLength="94.508" x="214.1407" y="423.9756">EvNewValueSaved</text><!--link *start to NotShooting--><path d="M131.7506,22.5057 C131.7506,27.8959 131.7506,35.8184 131.7506,44.7005 C131.7506,49.1415 131.7506,53.8224 131.7506,58.5465 C131.7506,60.9086 131.7506,63.2814 131.7506,65.6406 C131.7506,65.788 131.7506,65.9354 131.7506,66.0827 " fill="none" id="*start-NotShooting" style="stroke: #A80036; stroke-width: 0.8009153318077803;"/><polygon fill="#A80036" points="131.7506,66.0827,134.9542,58.8745,131.7506,62.0781,128.5469,58.8745,131.7506,66.0827" style="stroke: #A80036; stroke-width: 0.8009153318077803;"/><!--link *start*NotShooting to Idle--><path d="M170.9954,116.9416 C170.9954,127.1053 170.9954,146.095 170.9954,161.4405 " fill="none" id="*start*NotShooting-Idle" style="stroke: #A80036; stroke-width: 0.8009153318077803;"/><polygon fill="#A80036" points="170.9954,165.6613,174.1991,158.4531,170.9954,161.6568,167.7918,158.4531,170.9954,165.6613" style="stroke: #A80036; stroke-width: 0.8009153318077803;"/><!--link Idle to Configuring--><path d="M174.0389,206.0435 C175.6247,217.2002 177.4108,231.4886 178.2037,244.2792 C178.8764,255.1236 179.1728,266.3764 179.1888,277.6693 " fill="none" id="Idle-Configuring" style="stroke: #A80036; stroke-width: 0.8009153318077803;"/><polygon fill="#A80036" points="179.1888,281.8341,182.3924,274.6259,179.1888,277.8295,175.9851,274.6259,179.1888,281.8341" style="stroke: #A80036; stroke-width: 0.8009153318077803;"/><text fill="#000000" font-family="sans-serif" font-size="10.4119" lengthAdjust="spacingAndGlyphs" textLength="44.0503" x="179.0046" y="254.7447">EvConfig</text><!--link Configuring to Idle--><path d="M120.9062,281.77 C120.5137,269.0355 122.0034,256.349 126.1442,244.2792 C130.6613,231.1201 139.5355,218.6579 148.2094,208.7025 " fill="none" id="Configuring-Idle" style="stroke: #A80036; stroke-width: 0.8009153318077803;"/><polygon fill="#A80036" points="150.8844,205.6991,143.6942,208.9428,148.2176,208.6865,148.4739,213.2099,150.8844,205.6991" style="stroke: #A80036; stroke-width: 0.8009153318077803;"/><text fill="#000000" font-family="sans-serif" font-size="10.4119" lengthAdjust="spacingAndGlyphs" textLength="44.0503" x="126.9451" y="254.7447">EvConfig</text><!--
@startuml
scale 350 width
[*] - -> NotShooting

state NotShooting {
[*] - -> Idle
Idle - -> Configuring : EvConfig
Configuring - -> Idle : EvConfig
}

state Configuring {
[*] - -> NewValueSelection
NewValueSelection - -> NewValuePreview : EvNewValue
NewValuePreview - -> NewValueSelection : EvNewValueRejected
NewValuePreview - -> NewValueSelection : EvNewValueSaved

state NewValuePreview {
   State1 -> State2
}

}
@enduml

PlantUML version 1.2018.13(Mon Nov 26 17:11:51 UTC 2018)
(GPL source distribution)
Java Runtime: OpenJDK Runtime Environment
JVM: OpenJDK 64-Bit Server VM
Java Version: 11.0.16.1+1
Operating System: Linux
OS Version: 5.15.0-1017-azure
Default Encoding: UTF-8
Language: en
Country: null
--></g></svg>