<?xml version="1.0" encoding="UTF-8" standalone="no"?><svg xmlns="http://www.w3.org/2000/svg" xmlns:xlink="http://www.w3.org/1999/xlink" contentScriptType="application/ecmascript" contentStyleType="text/css" height="364px" preserveAspectRatio="none" style="width:670px;height:364px;" version="1.1" viewBox="0 0 670 364" width="670px" zoomAndPan="magnify"><defs><filter height="300%" id="fx99130ugi47w" width="300%" x="-1" y="-1"><feGaussianBlur result="blurOut" stdDeviation="2.0"/><feColorMatrix in="blurOut" result="blurOut2" type="matrix" values="0 0 0 0 0 0 0 0 0 0 0 0 0 0 0 0 0 0 .4 0"/><feOffset dx="4.0" dy="4.0" in="blurOut2" result="blurOut3"/><feBlend in="SourceGraphic" in2="blurOut3" mode="normal"/></filter></defs><g><line style="stroke: #A80036; stroke-width: 1.0; stroke-dasharray: 5.0,5.0;" x1="33" x2="33" y1="54.5938" y2="307.6563"/><line style="stroke: #A80036; stroke-width: 1.0; stroke-dasharray: 5.0,5.0;" x1="279" x2="279" y1="54.5938" y2="307.6563"/><line style="stroke: #A80036; stroke-width: 1.0; stroke-dasharray: 5.0,5.0;" x1="582" x2="582" y1="54.5938" y2="307.6563"/><rect fill="#90EE90" filter="url(#fx99130ugi47w)" height="30.2969" style="stroke: #A80036; stroke-width: 1.5;" width="46" x="8" y="19.2969"/><text fill="#000000" font-family="sans-serif" font-size="14" lengthAdjust="spacingAndGlyphs" textLength="32" x="15" y="39.292">Alice</text><rect fill="#90EE90" filter="url(#fx99130ugi47w)" height="30.2969" style="stroke: #A80036; stroke-width: 1.5;" width="46" x="8" y="306.6563"/><text fill="#000000" font-family="sans-serif" font-size="14" lengthAdjust="spacingAndGlyphs" textLength="32" x="15" y="326.6514">Alice</text><rect fill="#FFFFFF" filter="url(#fx99130ugi47w)" height="30.2969" style="stroke: #A80036; stroke-width: 1.5;" width="42" x="256" y="19.2969"/><text fill="#000000" font-family="sans-serif" font-size="14" lengthAdjust="spacingAndGlyphs" textLength="28" x="263" y="39.292">Bob</text><rect fill="#FFFFFF" filter="url(#fx99130ugi47w)" height="30.2969" style="stroke: #A80036; stroke-width: 1.5;" width="42" x="256" y="306.6563"/><text fill="#000000" font-family="sans-serif" font-size="14" lengthAdjust="spacingAndGlyphs" textLength="28" x="263" y="326.6514">Bob</text><rect fill="#FEFECE" filter="url(#fx99130ugi47w)" height="46.5938" style="stroke: #A80036; stroke-width: 1.5;" width="158" x="501" y="3"/><ellipse cx="519" cy="21" fill="#ADD1B2" rx="11" ry="11" style="stroke: #A80036; stroke-width: 1.0;"/><path d="M518.4844,21.5625 Q516.625,20.8594 515.9688,20.0938 Q515.3281,19.3125 515.3281,18 Q515.3281,16.3125 516.4063,15.3438 Q517.4844,14.375 519.3594,14.375 Q520.2188,14.375 521.0625,14.5781 Q521.9219,14.7656 522.7656,15.1563 L522.7656,17.5469 Q521.9844,16.9844 521.1563,16.7031 Q520.3438,16.4063 519.5469,16.4063 Q518.6719,16.4063 518.1875,16.7656 Q517.7188,17.125 517.7188,17.7813 Q517.7188,18.2969 518.0625,18.6406 Q518.4063,18.9688 519.5,19.375 L520.5625,19.7813 Q522.0469,20.3281 522.75,21.2344 Q523.4688,22.1406 523.4688,23.5156 Q523.4688,25.3906 522.3594,26.3125 Q521.25,27.2344 519,27.2344 Q518.0781,27.2344 517.1563,27.0156 Q516.2344,26.7969 515.375,26.375 L515.375,23.8438 Q516.3438,24.5313 517.2656,24.875 Q518.1875,25.2188 519.0781,25.2188 Q519.9844,25.2188 520.4844,24.8125 Q520.9844,24.3906 520.9844,23.6563 Q520.9844,23.0938 520.6406,22.6875 Q520.3125,22.2656 519.6875,22.0156 L518.4844,21.5625 Z "/><text fill="#000000" font-family="sans-serif" font-size="14" font-style="italic" lengthAdjust="spacingAndGlyphs" textLength="63" x="562.5" y="24">«Server»</text><text fill="#000000" font-family="sans-serif" font-size="14" lengthAdjust="spacingAndGlyphs" textLength="116" x="536" y="40.2969">Request Handler</text><rect fill="#FEFECE" filter="url(#fx99130ugi47w)" height="46.5938" style="stroke: #A80036; stroke-width: 1.5;" width="158" x="501" y="306.6563"/><ellipse cx="519" cy="324.6563" fill="#ADD1B2" rx="11" ry="11" style="stroke: #A80036; stroke-width: 1.0;"/><path d="M518.4844,325.2188 Q516.625,324.5156 515.9688,323.75 Q515.3281,322.9688 515.3281,321.6563 Q515.3281,319.9688 516.4063,319 Q517.4844,318.0313 519.3594,318.0313 Q520.2188,318.0313 521.0625,318.2344 Q521.9219,318.4219 522.7656,318.8125 L522.7656,321.2031 Q521.9844,320.6406 521.1563,320.3594 Q520.3438,320.0625 519.5469,320.0625 Q518.6719,320.0625 518.1875,320.4219 Q517.7188,320.7813 517.7188,321.4375 Q517.7188,321.9531 518.0625,322.2969 Q518.4063,322.625 519.5,323.0313 L520.5625,323.4375 Q522.0469,323.9844 522.75,324.8906 Q523.4688,325.7969 523.4688,327.1719 Q523.4688,329.0469 522.3594,329.9688 Q521.25,330.8906 519,330.8906 Q518.0781,330.8906 517.1563,330.6719 Q516.2344,330.4531 515.375,330.0313 L515.375,327.5 Q516.3438,328.1875 517.2656,328.5313 Q518.1875,328.875 519.0781,328.875 Q519.9844,328.875 520.4844,328.4688 Q520.9844,328.0469 520.9844,327.3125 Q520.9844,326.75 520.6406,326.3438 Q520.3125,325.9219 519.6875,325.6719 L518.4844,325.2188 Z "/><text fill="#000000" font-family="sans-serif" font-size="14" font-style="italic" lengthAdjust="spacingAndGlyphs" textLength="63" x="562.5" y="327.6563">«Server»</text><text fill="#000000" font-family="sans-serif" font-size="14" lengthAdjust="spacingAndGlyphs" textLength="116" x="536" y="343.9531">Request Handler</text><polygon fill="#A80036" points="267,81.7266,277,85.7266,267,89.7266,271,85.7266" style="stroke: #A80036; stroke-width: 1.0;"/><line style="stroke: #A80036; stroke-width: 1.0;" x1="33" x2="273" y1="85.7266" y2="85.7266"/><text fill="#000000" font-family="sans-serif" font-size="13" lengthAdjust="spacingAndGlyphs" textLength="184" x="40" y="80.6606">Valid Authentication Request</text><polygon fill="#A80036" points="570,110.8594,580,114.8594,570,118.8594,574,114.8594" style="stroke: #A80036; stroke-width: 1.0;"/><line style="stroke: #A80036; stroke-width: 1.0;" x1="279" x2="576" y1="114.8594" y2="114.8594"/><text fill="#000000" font-family="sans-serif" font-size="13" lengthAdjust="spacingAndGlyphs" textLength="266" x="286" y="109.7935">formatted Authenticated Request (VALID)</text><polygon fill="#A80036" points="290,139.9922,280,143.9922,290,147.9922,286,143.9922" style="stroke: #A80036; stroke-width: 1.0;"/><line style="stroke: #A80036; stroke-width: 1.0; stroke-dasharray: 2.0,2.0;" x1="284" x2="581" y1="143.9922" y2="143.9922"/><text fill="#000000" font-family="sans-serif" font-size="13" lengthAdjust="spacingAndGlyphs" textLength="244" x="296" y="138.9263">Request Authenticated Response (OK)</text><polygon fill="#A80036" points="44,169.125,34,173.125,44,177.125,40,173.125" style="stroke: #A80036; stroke-width: 1.0;"/><line style="stroke: #A80036; stroke-width: 1.0; stroke-dasharray: 2.0,2.0;" x1="38" x2="278" y1="173.125" y2="173.125"/><text fill="#000000" font-family="sans-serif" font-size="13" lengthAdjust="spacingAndGlyphs" textLength="191" x="50" y="168.0591">Authentication Response (OK)</text><polygon fill="#A80036" points="267,198.2578,277,202.2578,267,206.2578,271,202.2578" style="stroke: #A80036; stroke-width: 1.0;"/><line style="stroke: #A80036; stroke-width: 1.0;" x1="33" x2="273" y1="202.2578" y2="202.2578"/><text fill="#000000" font-family="sans-serif" font-size="13" lengthAdjust="spacingAndGlyphs" textLength="193" x="40" y="197.1919">Invalid Authentication Request</text><polygon fill="#A80036" points="570,227.3906,580,231.3906,570,235.3906,574,231.3906" style="stroke: #A80036; stroke-width: 1.0;"/><line style="stroke: #A80036; stroke-width: 1.0; stroke-dasharray: 2.0,2.0;" x1="279" x2="576" y1="231.3906" y2="231.3906"/><text fill="#000000" font-family="sans-serif" font-size="13" lengthAdjust="spacingAndGlyphs" textLength="279" x="286" y="226.3247">formatted Authenticated Request (INVALID)</text><polygon fill="#A80036" points="290,256.5234,280,260.5234,290,264.5234,286,260.5234" style="stroke: #A80036; stroke-width: 1.0;"/><line style="stroke: #A80036; stroke-width: 1.0; stroke-dasharray: 2.0,2.0;" x1="284" x2="581" y1="260.5234" y2="260.5234"/><text fill="#000000" font-family="sans-serif" font-size="13" lengthAdjust="spacingAndGlyphs" textLength="275" x="296" y="255.4575">Request Authenticated Response (DENIED)</text><polygon fill="#A80036" points="44,285.6563,34,289.6563,44,293.6563,40,289.6563" style="stroke: #A80036; stroke-width: 1.0;"/><line style="stroke: #A80036; stroke-width: 1.0; stroke-dasharray: 2.0,2.0;" x1="38" x2="278" y1="289.6563" y2="289.6563"/><text fill="#000000" font-family="sans-serif" font-size="13" lengthAdjust="spacingAndGlyphs" textLength="222" x="50" y="284.5903">Authentication Response (DENIED)</text><!--
@startuml


participant "Request Handler" as RH  << (S,#ADD1B2) Server >> order 3

participant Alice #lightGreen
participant Bob #white

Alice -> Bob: Valid Authentication Request
Bob -> RH: formatted Authenticated Request (VALID)
RH - -> Bob: Request Authenticated Response (OK)
Bob - -> Alice: Authentication Response (OK)

Alice -> Bob: Invalid Authentication Request
Bob - -> RH: formatted Authenticated Request (INVALID)
RH - -> Bob: Request Authenticated Response (DENIED)
Alice <- - Bob: Authentication Response (DENIED)

@enduml

PlantUML version 1.2018.13(Mon Nov 26 17:11:51 UTC 2018)
(GPL source distribution)
Java Runtime: OpenJDK Runtime Environment
JVM: OpenJDK 64-Bit Server VM
Java Version: 11.0.16.1+1
Operating System: Linux
OS Version: 5.15.0-1017-azure
Default Encoding: UTF-8
Language: en
Country: null
--></g></svg>